PathFileType	4	(X/Y/Z)	Kaydara	
DataRate	CameraRate	NumFrames	NumMarkers	Units	OrigDataRate	OrigDataStartFrame	OrigNumFrames	
120.00	120.00	4	72	mm	120.00	34	268	
Frame#	Time	Hips			RightUpLeg			RightLeg			RightFoot			RightFoot_End			LeftUpLeg			LeftLeg			LeftFoot			LeftFoot_End			Spine			Spine1			Spine2			Spine3			Neck			Head			Head_End			RightShoulder			RightArm			RightForeArm			RightHand			RightHandThumb1			RightHandThumb2			RightHandThumb3			RightHandThumb3_End			RightInHandIndex			RightHandIndex1			RightHandIndex2			RightHandIndex3			RightHandIndex3_End			RightInHandMiddle			RightHandMiddle1			RightHandMiddle2			RightHandMiddle3			RightHandMiddle3_End			RightInHandRing			RightHandRing1			RightHandRing2			RightHandRing3			RightHandRing3_End			RightInHandPinky			RightHandPinky1			RightHandPinky2			RightHandPinky3			RightHandPinky3_End			LeftShoulder			LeftArm			LeftForeArm			LeftHand			LeftHandThumb1			LeftHandThumb2			LeftHandThumb3			LeftHandThumb3_End			LeftInHandIndex			LeftHandIndex1			LeftHandIndex2			LeftHandIndex3			LeftHandIndex3_End			LeftInHandMiddle			LeftHandMiddle1			LeftHandMiddle2			LeftHandMiddle3			LeftHandMiddle3_End			LeftInHandRing			LeftHandRing1			LeftHandRing2			LeftHandRing3			LeftHandRing3_End			LeftInHandPinky			LeftHandPinky1			LeftHandPinky2			LeftHandPinky3			LeftHandPinky3_End			
		X1	Y1	Z1	X2	Y2	Z2	X3	Y3	Z3	X4	Y4	Z4	X5	Y5	Z5	X6	Y6	Z6	X7	Y7	Z7	X8	Y8	Z8	X9	Y9	Z9	X10	Y10	Z10	X11	Y11	Z11	X12	Y12	Z12	X13	Y13	Z13	X14	Y14	Z14	X15	Y15	Z15	X16	Y16	Z16	X17	Y17	Z17	X18	Y18	Z18	X19	Y19	Z19	X20	Y20	Z20	X21	Y21	Z21	X22	Y22	Z22	X23	Y23	Z23	X24	Y24	Z24	X25	Y25	Z25	X26	Y26	Z26	X27	Y27	Z27	X28	Y28	Z28	X29	Y29	Z29	X30	Y30	Z30	X31	Y31	Z31	X32	Y32	Z32	X33	Y33	Z33	X34	Y34	Z34	X35	Y35	Z35	X36	Y36	Z36	X37	Y37	Z37	X38	Y38	Z38	X39	Y39	Z39	X40	Y40	Z40	X41	Y41	Z41	X42	Y42	Z42	X43	Y43	Z43	X44	Y44	Z44	X45	Y45	Z45	X46	Y46	Z46	X47	Y47	Z47	X48	Y48	Z48	X49	Y49	Z49	X50	Y50	Z50	X51	Y51	Z51	X52	Y52	Z52	X53	Y53	Z53	X54	Y54	Z54	X55	Y55	Z55	X56	Y56	Z56	X57	Y57	Z57	X58	Y58	Z58	X59	Y59	Z59	X60	Y60	Z60	X61	Y61	Z61	X62	Y62	Z62	X63	Y63	Z63	X64	Y64	Z64	X65	Y65	Z65	X66	Y66	Z66	X67	Y67	Z67	X68	Y68	Z68	X69	Y69	Z69	X70	Y70	Z70	X71	Y71	Z71	X72	Y72	Z72	

34	0.275	446.8050000000003	859.65103	-201.189	519.1744099999996	838.78594	-256.45258000000007	383.3674899999987	450.35573	-333.71954	423.43217000000004	41.59161	-434.91121	349.35152000000016	-41.043350000000004	-279.27661	384.29005999999936	853.8040800000001	-130.20246	265.08086000000003	456.25368999999995	-75.05217999999999	211.98880999999892	50.57169	27.91981	237.6028499999993	-17.881740000000004	204.54557000000005	399.2619799999993	977.5728499999999	-266.58793	341.97332000000097	1037.32394	-317.37762999999995	275.29104000000007	1092.71508	-369.46732000000003	201.02751999999964	1133.3027399999999	-417.33311	120.52783999999974	1176.7270400000002	-464.64852	64.09952000000067	1244.17054	-427.04841	46.740350000000035	1334.2369200000003	-296.56103	159.1197599999996	1155.6599000000003	-477.27564	200.44458999999915	1093.2215199999996	-580.6142	135.5723199999993	840.74007	-530.16425	97.00124000000051	583.8054100000002	-519.26037	89.70945999999913	555.97023	-546.99039	63.30865999999969	531.2398599999999	-553.8942900000002	45.17167000000063	513.2018600000002	-554.3189399999999	30.264259999999922	497.4664900000001	-550.92321	91.84633000000031	549.37221	-534.88906	76.59547999999904	498.57271	-537.8941700000001	55.7534999999998	469.20318	-534.2849400000002	38.16233999999986	458.83401999999995	-532.24943	20.476580000000467	455.5734299999999	-530.7051799999999	92.56690999999955	549.2058999999999	-522.59183	78.08438000000024	499.56594	-518.8729699999999	55.473399999999856	467.66824	-513.2951299999999	34.3135400000001	455.23039000000006	-510.05262999999997	14.992839999998978	451.69779000000005	-507.98047999999994	93.56764000000021	550.30855	-513.85698	81.75685000000067	506.55551999999994	-503.02891999999997	62.205409999999574	478.98607	-496.49708999999996	41.87808000000041	467.11236999999994	-492.48249	23.751099999999497	463.84942	-490.11384	94.35577000000103	553.65126	-503.46755999999993	84.34772000000066	515.30997	-487.23213999999996	68.98635999999897	493.78778000000005	-479.44305	54.302089999999225	485.39523999999994	-475.27708000000007	38.326569999999265	482.65913999999987	-472.4665299999999	136.0967099999998	1172.89663	-420.1109	114.00296000000071	1154.5625800000003	-295.17842999999993	143.30715000000055	910.0254499999999	-392.41402000000005	243.30510999999933	672.43498	-416.9076	208.69736000000012	654.0401099999999	-424.70851	193.19916000000012	637.1187999999997	-453.51357999999993	186.42504999999983	623.4472499999999	-474.04892000000007	184.2157699999998	610.43511	-491.57509999999996	218.7808100000002	644.42089	-425.28881000000007	201.17797999999857	599.65243	-447.83063000000004	195.0590599999996	574.7217000000002	-473.34535999999997	192.71241999999984	567.6499400000001	-492.4659	191.7532399999991	567.4813600000001	-510.4896	230.61547999999857	641.14108	-426.26458	219.84583999999995	595.69944	-448.77619000000004	214.79519999999866	568.21528	-476.68573999999995	212.74449000000095	559.5492199999999	-499.78656000000007	212.0743599999987	559.29952	-519.52361	239.38638999999966	639.8818600000001	-426.28653	237.23289999999906	597.8169399999999	-446.21073	234.51040999999896	573.64823	-470.5717599999999	233.42433999999957	565.1758200000002	-492.8729	233.21696000000156	564.88735	-511.43949999999995	250.31634999999915	640.39275	-426.3850699999999	254.9413000000004	601.82821	-444.41809	255.39137999999912	582.32592	-463.89382	255.8714999999993	576.0740899999998	-480.14504	256.4200000000001	575.77711	-496.58321000000007
35	0.283	446.8050000000003	859.65103	-201.189	519.5633899999993	839.19452	-256.09341000000006	384.15694000000076	450.58673000000005	-333.1700599999999	423.7035599999999	41.743300000000005	-434.2450600000001	349.5929899999992	-40.88598000000001	-278.62168	383.8601299999991	853.3444399999998	-130.62298000000004	264.87909000000036	455.77716000000004	-75.10288999999997	212.1836199999998	50.31787	28.944339999999997	238.06775000000016	-17.52622	205.76571999999993	399.41779000000133	977.7712500000001	-266.34250000000003	342.2670799999996	1037.7307	-317.04200000000003	275.7431499999984	1093.3578	-369.08266999999995	201.66413000000102	1134.2115099999999	-417.008	121.37425000000076	1177.92645	-464.41217	65.1546500000004	1245.48525	-426.70654	47.95820000000003	1335.2924400000002	-296.01912	160.10938999999962	1157.09792	-476.99654	202.57041000000027	1095.99487	-580.6721400000001	139.53969000000052	842.4941100000001	-533.08034	102.7244899999996	585.2014800000001	-524.8835400000002	96.49179000000095	557.5138700000001	-553.01664	70.55951000000005	532.5587000000002	-560.82778	52.63872999999967	514.3316099999998	-561.88554	37.8173799999995	498.41077999999993	-559.01874	98.37157999999908	550.8419399999999	-540.91317	83.76335999999992	499.90793999999994	-544.7258099999999	63.153040000000146	470.28894	-541.91276	45.627410000000054	459.71605000000005	-540.43705	27.942919999999503	456.25404	-539.39985	98.76015000000007	550.5844200000001	-528.60255	84.72489999999925	500.7639700000001	-525.66402	62.32054999999946	468.5822500000001	-520.9508700000002	41.2175900000002	455.8929499999999	-518.3817800000002	21.887520000000222	452.1372100000001	-516.86349	99.51150999999936	551.62739	-519.8354199999999	87.88977999999952	507.66475	-509.6722100000001	68.47053999999935	479.8359599999999	-503.88864999999987	48.17266000000018	467.71346	-500.52075000000013	30.02480000000105	464.23773000000006	-498.67151	99.98103999999967	554.89464	-509.40280000000007	89.95554000000084	516.31904	-493.7434	74.62446999999975	494.5717000000001	-486.54220000000004	59.92511000000013	485.98921999999993	-482.8424800000001	43.910070000000815	483.05977000000007	-480.48889999999983	136.64647999999943	1173.66081	-419.81143999999995	113.69329999999991	1153.9386399999999	-295.24586999999997	144.22042000000056	910.5881400000001	-395.04833999999994	246.8074799999995	674.15511	-420.0299	212.11082999999962	656.2911300000001	-428.62885000000006	196.952659999999	639.7672199999998	-457.84267	190.3976300000013	626.3198800000001	-478.59601	188.35582999999951	613.4497400000001	-496.2469	222.0706399999999	646.5368500000001	-429.07397000000003	204.30233000000044	602.1589300000002	-452.2492999999999	198.34579999999914	577.4758499999999	-478.04173	196.2797499999997	570.55729	-497.2504799999999	195.67395000000033	570.5150000000001	-515.2902599999999	233.87607000000025	643.09943	-429.83864	222.92913000000044	597.9534800000001	-452.85402	218.0527200000015	570.71746	-481.03648000000004	216.3390899999995	562.22563	-504.22927999999996	216.05494999999974	562.10896	-523.9768900000003	242.6275799999985	641.7188900000001	-429.69662999999997	240.28967000000011	599.8135700000001	-449.93392000000006	237.7163099999998	575.8381000000002	-474.50122000000005	236.95394000000124	567.5215000000001	-496.8743099999999	237.10879000000023	567.35231	-515.4429	253.56334999999854	642.0787800000003	-429.57723	258.0127200000006	603.5676099999998	-447.76777999999996	258.5787900000014	584.1834	-467.3580299999999	259.29334000000017	578.0274999999999	-483.63723000000005	260.16178000000036	577.8259700000001	-500.06305999999995
36	0.292	446.8050000000003	859.65103	-201.189	519.9607300000007	839.6131099999999	-255.71852	384.93337000000065	450.8401600000001	-332.6271499999999	423.689980000001	41.86647000000001	-433.48089000000004	349.5620600000002	-40.75796	-277.8632	383.4206099999992	852.8733399999999	-131.06144	264.6712499999994	455.29431	-75.13109	212.3940500000008	50.08459	30.09276	238.57992999999988	-17.1227	207.11279	399.5784700000004	977.97532	-266.0884	342.5716100000009	1038.1518600000002	-316.69253	276.21360000000095	1094.0259	-368.68048	202.32949000000008	1135.16041	-416.66644	122.26116000000002	1179.1818799999999	-464.1616000000001	66.26279999999952	1246.85853	-426.33827	49.244329999999536	1336.3841599999998	-295.43456000000003	161.1462700000002	1158.6041499999997	-476.69597000000005	204.79793000000063	1098.9145799999997	-580.7	143.74640999999974	844.37455	-536.17394	108.82600999999977	586.74196	-530.87692	103.70488000000023	559.23147	-559.4052999999999	78.28580000000056	534.06207	-568.1591000000001	60.60743000000002	515.6495899999999	-569.8783700000001	45.88981999999942	499.5432400000001	-567.5673400000001	105.31484999999975	552.4763600000001	-547.3090700000001	91.39183999999932	501.4201999999999	-551.9595000000002	71.04280999999901	471.5540600000001	-549.98095	53.60180000000037	460.77751	-549.09298	35.93484999999964	457.1131899999999	-548.5887599999999	105.35661000000073	552.1169199999999	-534.99494	91.80215999999928	502.12224000000003	-532.87159	69.63467999999921	469.6575899999999	-529.06618	48.61066000000028	456.71622	-527.20482	29.288519999999153	452.73602	-526.26903	105.84703999999874	553.0923999999999	-526.2016000000001	94.4342999999999	508.91906000000006	-516.73932	75.17141999999967	480.8303800000001	-511.74276	54.92306000000099	468.45767000000006	-509.05529000000007	36.77007000000049	464.76756	-507.75269999999995	105.98358000000007	556.2744700000001	-515.73304	95.94997999999941	517.4577200000001	-500.68674	80.66503999999986	495.48245	-494.10618000000005	65.96356000000014	486.70789000000013	-490.89813	49.921949999999015	483.58299999999997	-489.0261199999999	137.22108000000026	1174.4574999999998	-419.50130000000007	113.37906999999996	1153.2618600000003	-295.3453600000001	145.1851799999995	911.1967399999999	-397.83804999999995	250.45458000000144	676.0045499999999	-423.36742000000004	215.68569000000025	658.7124499999999	-432.80292999999995	200.90137999999934	642.5933400000001	-462.4315700000001	194.58526999999958	629.3709399999999	-483.40238000000005	192.72433000000092	616.63958	-501.1735100000001	225.50732000000062	648.8135399999999	-433.10177999999996	207.57506000000103	604.8464800000002	-456.9248899999999	201.79687999999987	580.4113199999999	-482.9924800000001	200.0323900000003	573.6405499999998	-502.28379	199.8048400000007	573.7163099999998	-520.3321999999998	237.27406999999948	645.20508	-433.64138999999994	226.14622000000054	600.36736	-457.16691	221.46020999999928	573.3779100000002	-485.61761000000007	220.10839999999916	565.0529	-508.89465	220.2371400000011	565.0598099999999	-528.64423	245.9992999999995	643.6933	-433.3253000000001	243.4672499999997	601.95058	-453.87287999999995	241.05587000000014	578.1650499999998	-478.64044	240.6403799999989	569.9960999999998	-501.0769700000001	241.18245000000024	569.9368300000001	-519.63896	256.9342799999995	643.8892900000001	-432.9751	261.1944999999996	605.42664	-451.31301999999994	261.8849399999999	586.15488	-471.0099399999999	262.8499300000003	580.0874900000002	-487.3094300000001	264.05988999999863	579.9722900000002	-503.71447000000006
37	0.3	446.8050000000003	859.65103	-201.189	520.3732400000008	840.07276	-255.32911000000001	385.6967000000004	451.15138	-332.10227	422.2530999999999	41.72955	-431.9543	348.112000000001	-40.88658999999999	-276.33849	382.97138000000086	852.3591	-131.52200999999997	264.2826299999997	454.7786300000001	-75.47336	212.48470000000088	49.83559	31.00663	238.9645899999996	-16.75072	208.21749	399.7143500000002	978.18601	-265.80202	342.84987999999976	1038.5875	-316.29825	276.6604100000004	1094.71812	-368.22461999999996	202.98003000000062	1136.14666	-416.27086	123.14364000000023	1180.4893400000003	-463.85756	67.37946000000011	1248.28869	-425.90823000000006	50.54758000000038	1337.51973	-294.77943999999997	162.18602999999985	1160.1761999999999	-476.33449999999993	207.08558000000085	1101.96902	-580.6470399999998	148.16943999999967	846.3785199999999	-539.3811999999998	115.3200799999995	588.4287799999997	-537.16861	111.36313999999948	561.1280800000001	-566.08118	86.51096999999936	535.74937	-575.80476	69.10951999999997	517.1507	-578.2087099999999	54.52191999999923	500.85452999999995	-576.4764499999999	112.69753000000037	554.2795700000001	-554.0039500000001	99.52142999999978	503.11152000000004	-559.5202600000002	79.47765999999956	472.99512000000004	-558.40956	62.14672999999948	462.00997000000007	-558.13196	44.51715999999942	458.13723	-558.18073	112.3824999999988	553.80586	-541.69765	99.36363000000074	503.64028999999994	-540.42301	77.47947999999997	470.88763000000006	-537.56315	56.56438999999955	457.68742	-536.4374899999999	37.27153999999973	453.4757	-536.10643	112.60335000000032	554.7049200000001	-532.88528	101.4411399999999	510.31639000000007	-524.1598999999999	82.3734800000002	481.96167000000014	-519.9847000000002	62.202729999999974	469.3313300000001	-518.0053899999999	44.06425000000036	465.41974000000005	-517.2706899999998	112.39527999999973	557.7906399999999	-522.3890899999999	102.38449000000037	518.72199	-507.99366	87.17406000000028	496.51120000000003	-502.06327000000005	72.48962000000029	487.53783999999996	-499.3681	56.43809000000056	484.21050999999994	-497.99706000000003	137.77577999999994	1175.2818399999999	-419.1424300000001	113.0013799999997	1152.5313700000002	-295.44505999999996	146.15067999999974	911.85451	-400.74309000000005	254.2300699999996	678.00452	-426.85419	219.40531999999985	661.32718	-437.1510299999999	205.01436000000103	645.6298000000003	-467.19682	198.94654999999875	632.64011	-488.38525999999996	197.27066000000013	620.05057	-506.27544	229.07363000000078	651.2751699999999	-437.3026699999999	210.9703700000009	607.748	-461.7948099999999	205.3737999999994	583.57025	-488.14057	203.92139000000134	576.9483299999999	-507.50941000000006	204.08648999999969	577.1397599999999	-525.5576399999999	240.79089000000022	647.48322	-437.6118200000001	229.4693900000002	602.9752999999998	-461.66528	224.97595	576.2410499999999	-490.3867	223.99797000000035	568.08329	-513.74154	224.55503999999928	568.21077	-533.4832699999998	249.48226000000068	645.8307599999999	-437.11738	246.73775000000023	604.2620200000001	-457.98787	244.48883000000023	580.6721400000001	-482.957	244.43106999999873	572.6502899999999	-505.45031000000006	245.3745200000012	572.6976400000001	-523.9962699999999	260.408809999999	645.85041	-436.5299800000001	264.4579799999992	607.4394	-455.02327	265.2710700000007	588.2817499999999	-474.82653000000005	266.49338999999964	582.30107	-491.14080000000007	268.05682999999954	582.26847	-507.5163
